<?xml version="1.0" encoding="UTF-8" standalone="no"?>
<!-- Created with Fritzing (http://www.fritzing.org/) -->

<svg
   xmlns:dc="http://purl.org/dc/elements/1.1/"
   xmlns:cc="http://creativecommons.org/ns#"
   xmlns:rdf="http://www.w3.org/1999/02/22-rdf-syntax-ns#"
   xmlns:svg="http://www.w3.org/2000/svg"
   xmlns="http://www.w3.org/2000/svg"
   xmlns:sodipodi="http://sodipodi.sourceforge.net/DTD/sodipodi-0.dtd"
   xmlns:inkscape="http://www.inkscape.org/namespaces/inkscape"
   version="1.2"
   x="0in"
   y="0in"
   width="70.611069mm"
   height="56.371059mm"
   viewBox="0 0 200.15729 159.79236"
   id="svg1203"
   sodipodi:docname="trinketm0-board-plain.svg"
   inkscape:version="0.92.2 5c3e80d, 2017-08-06"
   inkscape:export-filename="/home/scruss/Desktop/trinket_m0_on _SD.png"
   inkscape:export-xdpi="192.02757"
   inkscape:export-ydpi="192.02757"
   style="enable-background:new">
  <sodipodi:namedview
     pagecolor="#ffffff"
     bordercolor="#666666"
     borderopacity="1"
     objecttolerance="10"
     gridtolerance="10"
     guidetolerance="10"
     inkscape:pageopacity="0"
     inkscape:pageshadow="2"
     inkscape:window-width="1972"
     inkscape:window-height="1179"
     id="namedview1205"
     showgrid="false"
     inkscape:zoom="2.524881"
     inkscape:cx="85.740594"
     inkscape:cy="106.52798"
     inkscape:window-x="810"
     inkscape:window-y="187"
     inkscape:window-maximized="0"
     inkscape:current-layer="layer4"
     inkscape:snap-smooth-nodes="false"
     inkscape:document-units="mm"
     units="mm"
     fit-margin-top="1"
     fit-margin-left="1"
     fit-margin-right="1"
     fit-margin-bottom="1"
     inkscape:object-paths="true"
     inkscape:snap-intersection-paths="false"
     inkscape:snap-object-midpoints="true"
     inkscape:snap-center="true" />
  <metadata
     id="metadata1209">
    <rdf:RDF>
      <cc:Work
         rdf:about="">
        <dc:format>image/svg+xml</dc:format>
        <dc:type
           rdf:resource="http://purl.org/dc/dcmitype/StillImage" />
        <dc:title></dc:title>
      </cc:Work>
    </rdf:RDF>
  </metadata>
  <defs
     id="defs1207" />
  <g
     inkscape:groupmode="layer"
     id="layer4"
     inkscape:label="cut"
     style="display:inline"
     transform="translate(-145.45868,-68.923072)">
    <path
       style="fill:none;stroke:#000000;stroke-width:0.85039574;stroke-linecap:round;stroke-linejoin:round;stroke-miterlimit:4;stroke-dasharray:none;stroke-opacity:1"
       d="m 157.22194,72.182922 h 176.6302 c 4.7112,0 8.50397,3.792771 8.50397,8.503971 V 216.95161 c 0,4.7112 -3.79277,8.50397 -8.50397,8.50397 h -176.6302 c -4.7112,0 -8.50397,-3.79277 -8.50397,-8.50397 V 80.686893 c 0,-4.7112 3.79277,-8.503971 8.50397,-8.503971 z"
       id="rect2804"
       inkscape:connector-curvature="0" />
    <path
       style="fill:none;stroke:#000000;stroke-width:0.85039574;stroke-linecap:round;stroke-linejoin:round;stroke-miterlimit:4;stroke-dasharray:none;stroke-opacity:1"
       d="m 332.26609,100.56517 a 4.2519784,4.2519784 0 0 1 -4.25198,4.25198 4.2519784,4.2519784 0 0 1 -4.25197,-4.25198 4.2519784,4.2519784 0 0 1 4.25197,-4.251984 4.2519784,4.2519784 0 0 1 4.25198,4.251984 z"
       id="path10075"
       inkscape:connector-curvature="0" />
    <path
       id="path10078"
       d="m 298.78599,147.00528 a 4.2519784,4.2519784 0 0 1 -4.25198,4.25198 4.2519784,4.2519784 0 0 1 -4.25197,-4.25198 4.2519784,4.2519784 0 0 1 4.25197,-4.25198 4.2519784,4.2519784 0 0 1 4.25198,4.25198 z"
       style="fill:none;stroke:#000000;stroke-width:0.85039574;stroke-linecap:round;stroke-linejoin:round;stroke-miterlimit:4;stroke-dasharray:none;stroke-opacity:1"
       inkscape:connector-curvature="0" />
    <path
       inkscape:connector-curvature="0"
       style="fill:none;stroke:#000000;stroke-width:0.85039574;stroke-linecap:round;stroke-linejoin:round;stroke-miterlimit:4;stroke-dasharray:none;stroke-opacity:1"
       d="m 331.18608,147.00528 a 4.2519784,4.2519784 0 0 1 -4.25198,4.25198 4.2519784,4.2519784 0 0 1 -4.25197,-4.25198 4.2519784,4.2519784 0 0 1 4.25197,-4.25198 4.2519784,4.2519784 0 0 1 4.25198,4.25198 z"
       id="path10080" />
    <path
       id="path10082"
       d="m 297.70597,100.00468 a 4.2519784,4.2519784 0 0 1 -4.25198,4.25198 4.2519784,4.2519784 0 0 1 -4.25197,-4.25198 4.2519784,4.2519784 0 0 1 4.25197,-4.251979 4.2519784,4.2519784 0 0 1 4.25198,4.251979 z"
       style="fill:none;stroke:#000000;stroke-width:0.85039574;stroke-linecap:round;stroke-linejoin:round;stroke-miterlimit:4;stroke-dasharray:none;stroke-opacity:1"
       inkscape:connector-curvature="0" />
  </g>
  <g
     inkscape:groupmode="layer"
     id="layer1"
     inkscape:label="etch"
     transform="translate(-145.45868,137.22835)">
    <path
       transform="translate(-188.72923,73.30016)"
       id="path1508"
       style="display:inline;fill:#00ffff;stroke:none;stroke-width:0.84130037;stroke-linecap:round;stroke-linejoin:round;stroke-miterlimit:4;stroke-dasharray:none;stroke-opacity:1;enable-background:new"
       d="m 448.09936,-195.82933 h -99.21283 v 130.394013 h 99.21283 z m 1.41733,-1.41733 V -64.017987 H 347.4692 V -197.24666 Z"
       inkscape:connector-curvature="0" />
    <path
       id="path10102"
       style="font-style:normal;font-variant:normal;font-weight:normal;font-stretch:normal;font-size:medium;line-height:1.25;font-family:'mnicmp Star';-inkscape-font-specification:'mnicmp Star';text-align:center;letter-spacing:0px;word-spacing:0px;text-anchor:middle;fill:#00ffff;fill-opacity:1;stroke:none;stroke-width:0.64260387"
       d="m 312.50537,-43.245379 0.34415,0.877996 -0.74068,0.596582 0.93915,-0.06334 0.32801,0.857977 0.24192,-0.887972 0.91913,-0.04721 -0.76842,-0.503252 0.26196,-0.904102 -0.74068,0.596589 z m 2.14194,-1.725259 0.34414,0.877995 -0.74067,0.596583 0.93915,-0.06333 0.32801,0.857977 0.24192,-0.887972 0.91912,-0.04721 -0.76841,-0.503252 0.26195,-0.904096 -0.74068,0.596583 z m 1.33829,1.6615 0.34413,0.877995 -0.74066,0.596583 0.93914,-0.06333 0.32802,0.857976 0.24192,-0.887971 0.91912,-0.04721 -0.76841,-0.503251 0.26194,-0.904097 -0.74067,0.596583 z m 1.3544,1.681518 0.34414,0.877995 -0.74066,0.596583 0.93914,-0.06333 0.32801,0.857976 0.24192,-0.887971 0.91912,-0.04721 -0.7684,-0.503251 0.26194,-0.904096 -0.74067,0.596582 z m 1.33829,1.6615 0.34413,0.877996 -0.74066,0.596582 0.93914,-0.06334 0.32802,0.857978 0.24192,-0.887973 0.91913,-0.04721 -0.76842,-0.503252 0.26194,-0.904096 -0.74067,0.596584 z m 1.33828,1.6615 0.34414,0.877995 -0.74067,0.596584 0.93915,-0.06334 0.32801,0.857978 0.24192,-0.887972 0.91913,-0.04721 -0.76842,-0.503253 0.26195,-0.904094 -0.74068,0.596582 z m 1.35441,1.681518 0.34414,0.877996 -0.74067,0.596583 0.93914,-0.06334 0.32802,0.857978 0.24192,-0.887972 0.91913,-0.04721 -0.76842,-0.503253 0.26194,-0.904095 -0.74067,0.596584 z m -0.80366,3.38676 0.34415,0.877995 -0.74067,0.596583 0.93915,-0.06333 0.32801,0.857977 0.24192,-0.887971 0.91912,-0.04721 -0.7684,-0.503252 0.26194,-0.904101 -0.74067,0.596589 z m 2.14194,-1.72526 0.34414,0.877995 -0.74066,0.596584 0.93914,-0.06334 0.32802,0.857977 0.24191,-0.887972 0.91913,-0.04721 -0.76841,-0.503252 0.26194,-0.904096 -0.74067,0.596584 z m 2.14193,-1.725259 0.34415,0.877995 -0.74067,0.596588 0.93915,-0.06334 0.32801,0.857977 0.24192,-0.887972 0.91912,-0.04721 -0.7684,-0.503252 0.26193,-0.904095 -0.74066,0.596582 z m -20.59519,5.597979 0.34414,0.877996 -0.74066,0.596582 0.93914,-0.06334 0.32801,0.857976 0.24192,-0.887971 0.91913,-0.04722 -0.76841,-0.503246 0.26194,-0.904101 -0.74067,0.596588 z m 2.14193,-1.725259 0.34415,0.877995 -0.74067,0.596583 0.93914,-0.06333 0.32802,0.857977 0.24191,-0.887972 0.91913,-0.04721 -0.76841,-0.503252 0.26194,-0.904096 -0.74067,0.596583 z m 2.14194,-1.725259 0.34414,0.877994 -0.74067,0.596589 0.93915,-0.06334 0.32801,0.857976 0.24192,-0.887971 0.91913,-0.04721 -0.76841,-0.503252 0.26194,-0.904096 -0.74067,0.596583 z m -4.00654,5.966583 0.34414,0.877995 -0.74066,0.596583 0.93914,-0.06333 0.32801,0.857978 0.24192,-0.887973 0.91912,-0.04721 -0.7684,-0.503252 0.26193,-0.904096 -0.74066,0.596584 z m 6.40578,-5.159649 0.34414,0.877996 -0.74067,0.596583 0.93914,-0.06334 0.32802,0.857978 0.24192,-0.887973 0.91913,-0.04721 -0.76842,-0.503252 0.26195,-0.904101 -0.74068,0.596589 z m -5.06749,6.821149 0.34413,0.877995 -0.74066,0.596584 0.93914,-0.06333 0.32801,0.857978 0.24193,-0.887972 0.91912,-0.04721 -0.76841,-0.503253 0.26194,-0.904094 -0.74067,0.596582 z m 6.40577,-5.159649 0.34415,0.877995 -0.74067,0.596584 0.93914,-0.06334 0.32802,0.857977 0.24191,-0.887972 0.91913,-0.04721 -0.76841,-0.503252 0.26195,-0.904101 -0.74068,0.596589 z m -5.05136,6.841167 0.34413,0.877995 -0.74066,0.596584 0.93914,-0.06333 0.32801,0.857978 0.24193,-0.887972 0.91911,-0.04721 -0.7684,-0.503253 0.26193,-0.904095 -0.74066,0.596584 z m 6.40577,-5.159649 0.34415,0.877996 -0.74068,0.596583 0.93915,-0.06333 0.32802,0.857977 0.24191,-0.887972 0.91913,-0.04721 -0.76841,-0.503252 0.26195,-0.904101 -0.74068,0.596589 z m -4.00654,5.966584 0.34414,0.877995 -0.74067,0.596584 0.93915,-0.06333 0.32802,0.857977 0.24191,-0.887972 0.91913,-0.04722 -0.76841,-0.503247 0.26194,-0.904101 -0.74068,0.596589 z m 2.14193,-1.725259 0.34415,0.877995 -0.74067,0.596583 0.93915,-0.06334 0.32801,0.857977 0.24191,-0.887971 0.91913,-0.04721 -0.76841,-0.503252 0.26194,-0.904095 -0.74067,0.596583 z m 2.14194,-1.72526 0.34414,0.877996 -0.74067,0.596588 0.93915,-0.06334 0.32802,0.857977 0.24191,-0.887972 0.91913,-0.04721 -0.76841,-0.503252 0.26194,-0.904096 -0.74067,0.596583 z m -22.7171,7.30711 0.34413,0.877995 -0.74067,0.596589 0.93914,-0.06333 0.32802,0.857977 0.24193,-0.887977 0.91912,-0.04721 -0.76841,-0.503252 0.26194,-0.904096 -0.74067,0.596583 z m 2.14193,-1.725254 0.34413,0.877995 -0.74066,0.596583 0.93914,-0.06334 0.32801,0.857976 0.24193,-0.887971 0.91912,-0.04722 -0.7684,-0.503252 0.26193,-0.904096 -0.74067,0.596589 z m 2.12191,-1.709136 0.34414,0.877996 -0.74067,0.596582 0.93915,-0.06333 0.32801,0.857976 0.24192,-0.887971 0.91912,-0.04721 -0.76841,-0.503251 0.26195,-0.904096 -0.74068,0.596583 z m -2.92556,5.095889 0.34413,0.877996 -0.74067,0.596588 0.93914,-0.06334 0.32802,0.857977 0.24193,-0.887977 0.91913,-0.04721 -0.76842,-0.503252 0.26194,-0.904095 -0.74067,0.596583 z m 3.20289,-2.579824 0.34414,0.877996 -0.74067,0.596588 0.93915,-0.06334 0.32801,0.857978 0.24192,-0.887973 0.91912,-0.04721 -0.76841,-0.503253 0.26194,-0.904095 -0.74067,0.596584 z m 3.20289,-2.579824 0.34414,0.877995 -0.74067,0.596583 0.93914,-0.06333 0.32802,0.857976 0.24192,-0.887971 0.91912,-0.04721 -0.7684,-0.503252 0.26193,-0.904095 -0.74066,0.596582 z m -5.0675,6.821149 0.34414,0.877995 -0.74067,0.596589 0.93914,-0.06334 0.32802,0.857978 0.24192,-0.887978 0.91913,-0.04721 -0.76841,-0.503252 0.26194,-0.904095 -0.74067,0.596583 z m 3.2029,-2.579825 0.34413,0.877996 -0.74067,0.596588 0.93915,-0.06334 0.32801,0.857978 0.24193,-0.887972 0.91912,-0.04721 -0.76841,-0.503253 0.26194,-0.904094 -0.74067,0.596582 z m 3.20288,-2.579824 0.34414,0.877996 -0.74066,0.596582 0.93914,-0.06333 0.32801,0.857978 0.24192,-0.887973 0.91913,-0.04721 -0.76841,-0.503252 0.26193,-0.904096 -0.74066,0.596584 z m -5.05137,6.841166 0.34414,0.877997 -0.74067,0.596587 0.93914,-0.06333 0.32802,0.857977 0.24192,-0.887977 0.91913,-0.04721 -0.76842,-0.503251 0.26195,-0.904096 -0.74068,0.596583 z m 3.2029,-2.579824 0.34413,0.877996 -0.74067,0.596588 0.93915,-0.06334 0.32801,0.857978 0.24193,-0.887972 0.91911,-0.04721 -0.7684,-0.503253 0.26193,-0.904095 -0.74066,0.596583 z m 3.20288,-2.579824 0.34414,0.877996 -0.74067,0.596582 0.93915,-0.06333 0.32801,0.857977 0.24192,-0.887972 0.91913,-0.04721 -0.76841,-0.503252 0.26193,-0.904095 -0.74066,0.596583 z m -5.06749,6.821149 0.34413,0.877994 -0.74067,0.596589 0.93914,-0.06334 0.32802,0.857978 0.24193,-0.887978 0.91912,-0.04721 -0.76841,-0.503252 0.26194,-0.904095 -0.74067,0.596582 z m 3.20289,-2.579825 0.34413,0.877996 -0.74067,0.596588 0.93915,-0.06334 0.32801,0.857976 0.24193,-0.887971 0.91912,-0.04721 -0.76841,-0.503252 0.26194,-0.904096 -0.74067,0.596583 z m 3.20288,-2.579824 0.34415,0.877996 -0.74068,0.596582 0.93916,-0.06334 0.32801,0.857977 0.24191,-0.887971 0.91913,-0.04721 -0.76841,-0.503252 0.26194,-0.904095 -0.74067,0.596584 z m -22.7171,7.307109 0.34414,0.877996 -0.74067,0.596588 0.93914,-0.06334 0.32801,0.857982 0.24193,-0.887977 0.91912,-0.04721 -0.7684,-0.503251 0.26193,-0.904097 -0.74066,0.596583 z m 2.14193,-1.725253 0.34414,0.877994 -0.74067,0.596584 0.93914,-0.06334 0.32802,0.857977 0.24192,-0.887971 0.91913,-0.04722 -0.76841,-0.503252 0.26194,-0.904096 -0.74067,0.596583 z m 2.14194,-1.72526 0.34413,0.877996 -0.74066,0.596582 0.93914,-0.06333 0.32801,0.857976 0.24193,-0.887971 0.91911,-0.04721 -0.7684,-0.503251 0.26194,-0.904101 -0.74067,0.596589 z m -4.00655,5.9665839 0.34414,0.8779953 -0.74067,0.5965832 0.93915,-0.063337 0.32801,0.8579775 0.24192,-0.8879722 0.91913,-0.047217 -0.76841,-0.5032471 0.26194,-0.9041009 -0.74067,0.5965888 z m 2.39924,0.8069297 0.34415,0.8779954 -0.74068,0.5965885 0.93916,-0.063343 0.328,0.8579828 0.24192,-0.8879774 0.91913,-0.047212 -0.76841,-0.5032523 0.26194,-0.9040951 -0.74067,0.5965831 z m 2.14193,-1.7252536 0.34415,0.8779951 -0.74067,0.5965831 0.93914,-0.063337 0.32802,0.8579774 0.24191,-0.887972 0.91914,-0.047219 -0.76842,-0.5032519 0.26195,-0.9040957 -0.74068,0.596584 z m 2.14194,-1.72526 0.34414,0.877995 -0.74067,0.596584 0.93915,-0.06334 0.32801,0.8579768 0.24192,-0.8879718 0.91912,-0.04721 -0.7684,-0.503252 0.26194,-0.904102 -0.74067,0.596589 z m 2.41537,0.826948 0.34413,0.878 -0.74066,0.5965838 0.93914,-0.063335 0.32802,0.857977 0.24192,-0.8879771 0.91912,-0.04721 -0.7684,-0.5032527 0.26194,-0.904095 -0.74067,0.596583 z m -4.00654,5.9665836 0.34414,0.8779951 -0.74067,0.5965885 0.93915,-0.063342 0.328,0.8579824 0.24193,-0.8879771 0.91912,-0.047212 -0.7684,-0.503252 0.26193,-0.9040956 -0.74066,0.5965832 z m 2.14193,-1.7252539 0.34414,0.877995 -0.74067,0.5965832 0.93914,-0.063337 0.32802,0.8579772 0.24192,-0.8879719 0.91913,-0.047217 -0.76841,-0.503252 0.26194,-0.9040956 -0.74067,0.5965831 z m 2.14194,-1.7252593 0.34413,0.877995 -0.74066,0.5965832 0.93914,-0.063337 0.32801,0.8579772 0.24193,-0.8879719 0.91911,-0.047212 -0.7684,-0.503252 0.26194,-0.9041009 -0.74067,0.5965885 z m -23.26787,2.2388319 0.34414,0.877995 -0.74068,0.5965885 0.93915,-0.063342 0.32802,0.8579768 0.24192,-0.8879714 0.91912,-0.047213 -0.76841,-0.5032517 0.26194,-0.9040959 -0.74066,0.5965832 z m 2.12191,-1.7091301 0.34414,0.877995 -0.74067,0.5965832 0.93915,-0.063337 0.32801,0.8579768 0.24192,-0.8879714 0.91913,-0.047219 -0.76841,-0.5032515 0.26194,-0.9040959 -0.74067,0.5965831 z m -0.78363,3.3706304 0.34414,0.8779947 -0.74068,0.5965885 0.93915,-0.063342 0.32802,0.8579768 0.24192,-0.8879714 0.91913,-0.047213 -0.76842,-0.5032516 0.26194,-0.9040958 -0.74066,0.5965831 z m 2.12192,-1.7091301 0.34413,0.8779947 -0.74066,0.5965832 0.93914,-0.063337 0.32801,0.8579768 0.24193,-0.8879714 0.91912,-0.047218 -0.7684,-0.5032516 0.26193,-0.904096 -0.74066,0.5965831 z m -2.90944,5.1159075 0.34413,0.8779947 -0.74066,0.5965832 0.93914,-0.063336 0.32801,0.8579768 0.24193,-0.8879715 0.91912,-0.047213 -0.76841,-0.5032517 0.26193,-0.9040958 -0.74066,0.5965831 z m 2.14193,-1.7252594 0.34414,0.8779948 -0.74068,0.5965886 0.93915,-0.063342 0.32802,0.8579767 0.24192,-0.8879714 0.91913,-0.047213 -0.76842,-0.5032516 0.26194,-0.904096 -0.74066,0.5965832 z m 2.12192,-1.70913 0.34413,0.8779948 -0.74066,0.5965831 0.93914,-0.063336 0.32801,0.8579767 0.24193,-0.8879714 0.91912,-0.047218 -0.7684,-0.5032516 0.26193,-0.9040959 -0.74066,0.5965832 z m 2.14193,-1.7252593 0.34414,0.8779948 -0.74067,0.5965831 0.93914,-0.063336 0.32802,0.8579767 0.24192,-0.8879714 0.91912,-0.047213 -0.76841,-0.5032517 0.26195,-0.9041013 -0.74067,0.5965885 z m -2.92557,5.0958887 0.34415,0.8779954 -0.74068,0.5965885 0.93915,-0.063343 0.32802,0.8579778 0.24191,-0.8879724 0.91913,-0.047212 -0.76841,-0.5032525 0.26194,-0.9040952 -0.74067,0.5965832 z m 2.12192,-1.70913 0.34413,0.8779954 -0.74066,0.5965831 0.93914,-0.063337 0.32801,0.8579776 0.24193,-0.8879722 0.91913,-0.047217 -0.76841,-0.5032526 0.26193,-0.9040952 -0.74066,0.5965832 z m -2.92556,5.0958896 0.34413,0.8779955 -0.74066,0.5965831 0.93914,-0.063337 0.32801,0.8579774 0.24193,-0.8879721 0.91911,-0.047212 -0.7684,-0.5032523 0.26194,-0.9040952 -0.74067,0.5965832 z m 2.14193,-1.7252593 0.34414,0.8779954 -0.74067,0.5965886 0.93914,-0.063343 0.32802,0.8579773 0.24192,-0.887972 0.91912,-0.047212 -0.76841,-0.5032523 0.26194,-0.9040953 -0.74066,0.5965832 z m 2.12191,-1.7091301 0.34414,0.8779954 -0.74067,0.5965831 0.93915,-0.063337 0.32801,0.8579775 0.24192,-0.8879721 0.91913,-0.047218 -0.76841,-0.5032522 0.26194,-0.9040952 -0.74067,0.5965831 z m 2.14193,-1.7252594 0.34415,0.8779955 -0.74068,0.5965832 0.93915,-0.063337 0.32802,0.8579773 0.24191,-0.887972 0.91913,-0.047212 -0.76841,-0.5032524 0.26195,-0.9041005 -0.74068,0.5965885 z m -2.90943,5.1159075 0.34414,0.8779954 -0.74067,0.5965885 0.93914,-0.063343 0.32802,0.8579772 0.24192,-0.8879718 0.91912,-0.047212 -0.76841,-0.5032521 0.26194,-0.9040952 -0.74066,0.5965832 z m 2.12191,-1.7091301 0.34414,0.8779954 -0.74067,0.5965831 0.93914,-0.063337 0.32801,0.8579772 0.24193,-0.8879718 0.91913,-0.047218 -0.76841,-0.503252 0.26194,-0.9040954 -0.74067,0.5965833 z m -0.78363,3.3706302 0.34414,0.877995 -0.74067,0.5965885 0.93914,-0.063342 0.32802,0.857977 0.24192,-0.8879717 0.91913,-0.047212 -0.76841,-0.503252 0.26193,-0.9040955 -0.74066,0.5965831 z m 2.12191,-1.7091301 0.34414,0.877995 -0.74066,0.5965832 0.93914,-0.063337 0.32801,0.8579772 0.24193,-0.8879719 0.91912,-0.047217 -0.7684,-0.503252 0.26193,-0.9040956 -0.74066,0.5965831 z"
       inkscape:connector-curvature="0"
       inkscape:transform-center-x="-20.992975"
       inkscape:transform-center-y="-25.51187" />
  </g>
</svg>
