<?xml version="1.0" encoding="UTF-8" standalone="no"?>
<svg
   xmlns:dc="http://purl.org/dc/elements/1.1/"
   xmlns:cc="http://creativecommons.org/ns#"
   xmlns:rdf="http://www.w3.org/1999/02/22-rdf-syntax-ns#"
   xmlns:svg="http://www.w3.org/2000/svg"
   xmlns="http://www.w3.org/2000/svg"
   style="enable-background:new"
   id="svg1203"
   viewBox="0 0 419.52742 297.63851"
   height="105mm"
   width="148mm"
   y="0in"
   x="0in"
   version="1.2">
  <metadata
     id="metadata1209">
    <rdf:RDF>
      <cc:Work
         rdf:about="">
        <dc:format>image/svg+xml</dc:format>
        <dc:type
           rdf:resource="http://purl.org/dc/dcmitype/StillImage" />
        <dc:title></dc:title>
      </cc:Work>
    </rdf:RDF>
  </metadata>
  <defs
     id="defs1207">
    <linearGradient
       x1="37.913601"
       y1="456.10101"
       x2="37.913601"
       gradientUnits="userSpaceOnUse"
       y2="457.10101"
       id="i"
       gradientTransform="matrix(0.75000178,0,0,0.75000178,205.40665,-329.98884)">
      <stop
         id="stop11995"
         offset="0"
         stop-color="#24056E" />
      <stop
         id="stop11997"
         offset="1"
         stop-color="#1A00A1" />
    </linearGradient>
    <radialGradient
       r="1"
       gradientTransform="matrix(90.352714,0,0,122.24279,10622.205,44964.977)"
       cx="-114.473"
       cy="-368.686"
       gradientUnits="userSpaceOnUse"
       id="t">
      <stop
         id="stop11972"
         offset="0"
         stop-color="#1A00A6" />
      <stop
         id="stop11974"
         offset="1"
         stop-color="#1A124F" />
    </radialGradient>
  </defs>
  <g
     id="layer4"
     style="display:inline">
    <g
       id="g10917">
      <path
         id="rect2804"
         d="m 157.22194,72.182922 h 176.6302 c 4.7112,0 8.50397,3.792771 8.50397,8.503971 V 216.95161 c 0,4.7112 -3.79277,8.50397 -8.50397,8.50397 h -176.6302 c -4.7112,0 -8.50397,-3.79277 -8.50397,-8.50397 V 80.686893 c 0,-4.7112 3.79277,-8.503971 8.50397,-8.503971 z"
         style="fill:none;stroke:#000000;stroke-width:0.25511873;stroke-linecap:round;stroke-linejoin:round;stroke-miterlimit:4;stroke-dasharray:none;stroke-opacity:1;font-variant-east_asian:normal;opacity:1;vector-effect:none;fill-opacity:1;stroke-dashoffset:0" />
      <path
         id="path10075"
         d="m 332.26609,100.56517 a 4.2519784,4.2519784 0 0 1 -4.25198,4.25198 4.2519784,4.2519784 0 0 1 -4.25197,-4.25198 4.2519784,4.2519784 0 0 1 4.25197,-4.251984 4.2519784,4.2519784 0 0 1 4.25198,4.251984 z"
         style="fill:none;stroke:#000000;stroke-width:0.25511873;stroke-linecap:round;stroke-linejoin:round;stroke-miterlimit:4;stroke-dasharray:none;stroke-opacity:1;font-variant-east_asian:normal;opacity:1;vector-effect:none;fill-opacity:1;stroke-dashoffset:0" />
      <path
         style="fill:none;stroke:#000000;stroke-width:0.25511873;stroke-linecap:round;stroke-linejoin:round;stroke-miterlimit:4;stroke-dasharray:none;stroke-opacity:1;font-variant-east_asian:normal;opacity:1;vector-effect:none;fill-opacity:1;stroke-dashoffset:0"
         d="m 298.78599,147.00528 a 4.2519784,4.2519784 0 0 1 -4.25198,4.25198 4.2519784,4.2519784 0 0 1 -4.25197,-4.25198 4.2519784,4.2519784 0 0 1 4.25197,-4.25198 4.2519784,4.2519784 0 0 1 4.25198,4.25198 z"
         id="path10078" />
      <path
         id="path10080"
         d="m 331.18608,147.00528 a 4.2519784,4.2519784 0 0 1 -4.25198,4.25198 4.2519784,4.2519784 0 0 1 -4.25197,-4.25198 4.2519784,4.2519784 0 0 1 4.25197,-4.25198 4.2519784,4.2519784 0 0 1 4.25198,4.25198 z"
         style="fill:none;stroke:#000000;stroke-width:0.25511873;stroke-linecap:round;stroke-linejoin:round;stroke-miterlimit:4;stroke-dasharray:none;stroke-opacity:1;font-variant-east_asian:normal;opacity:1;vector-effect:none;fill-opacity:1;stroke-dashoffset:0" />
      <path
         style="fill:none;stroke:#000000;stroke-width:0.25511873;stroke-linecap:round;stroke-linejoin:round;stroke-miterlimit:4;stroke-dasharray:none;stroke-opacity:1;font-variant-east_asian:normal;opacity:1;vector-effect:none;fill-opacity:1;stroke-dashoffset:0"
         d="m 297.70597,100.00468 a 4.2519784,4.2519784 0 0 1 -4.25198,4.25198 4.2519784,4.2519784 0 0 1 -4.25197,-4.25198 4.2519784,4.2519784 0 0 1 4.25197,-4.251979 4.2519784,4.2519784 0 0 1 4.25198,4.251979 z"
         id="path10082" />
    </g>
  </g>
  <g
     id="layer3">
    <g
       id="g10942">
      <path
         id="path6511"
         transform="translate(-188.72923,279.45158)"
         d="m 448.09936,-195.82933 h -99.21283 v 130.394013 h 99.21283 z"
         style="enable-background:new;display:inline;fill:none;stroke:#008000;stroke-width:0.25511873;stroke-linecap:round;stroke-linejoin:round;stroke-miterlimit:4;stroke-dasharray:none;stroke-opacity:1;font-variant-east_asian:normal;opacity:1;vector-effect:none;fill-opacity:1;stroke-dashoffset:0" />
      <path
         id="path1508"
         transform="translate(-188.72923,279.45158)"
         d="M 449.51669,-197.24666 V -64.017987 H 347.4692 V -197.24666 Z"
         style="enable-background:new;display:inline;fill:none;stroke:#008000;stroke-width:0.25511873;stroke-linecap:round;stroke-linejoin:round;stroke-miterlimit:4;stroke-dasharray:none;stroke-opacity:1;font-variant-east_asian:normal;opacity:1;vector-effect:none;fill-opacity:1;stroke-dashoffset:0" />
      <path
         id="path7176"
         style="opacity:1;vector-effect:none;fill:none;fill-opacity:1;stroke:#008000;stroke-width:0.25511873;stroke-linecap:round;stroke-linejoin:round;stroke-miterlimit:4;stroke-dasharray:none;stroke-dashoffset:0;stroke-opacity:1;font-variant-east_asian:normal"
         d="m 310.7283,163.30799 7.90383,9.81272 m -12.2783,-0.89623 -0.55818,1.22002 -0.1818,1.68729 0.66185,1.77819 0.75274,0.93454 1.59639,1.02545 1.68729,0.1818 1.31092,-0.28547 1.40182,-1.12912 0.55817,-1.22002 0.1818,-1.68729 -0.66184,-1.77819 -0.75275,-0.93454 -1.59639,-1.02545 -1.68729,-0.1818 -1.31092,0.28547 -1.40181,1.12912 m -15.88727,12.79667 5.26922,6.54182 m -3.76373,-4.67273 0.2727,-2.53093 0.55817,-1.22002 1.40182,-1.12912 1.31092,-0.28547 1.59639,1.02545 3.76373,4.67272 m -3.76373,-4.67272 0.2727,-2.53094 0.55817,-1.22002 1.40182,-1.12912 1.31091,-0.28547 1.59639,1.02544 3.76373,4.67273 m -17.691,5.77482 -1.22002,-0.55818 -1.77819,0.66185 -1.40181,1.12912 -1.02545,1.59638 0.28547,1.31092 1.22002,0.55818 1.31092,-0.28548 2.71273,-1.41459 1.31092,-0.28548 1.22002,0.55818 0.37637,0.46727 0.28548,1.31092 -1.02545,1.59639 -1.40182,1.12912 -1.77819,0.66184 -1.22002,-0.55816 m -14.35474,-5.38716 8.77302,17.58733 m -5.96938,-19.84557 8.77302,17.58733 m -9.95472,-6.61993 6.54181,-5.26922 m -4.75085,8.44922 6.54182,-5.26921" />
      <path
         id="path8573"
         style="vector-effect:none;fill:none;fill-opacity:1;stroke:#008000;stroke-width:0.25511873;stroke-linecap:round;stroke-linejoin:round;stroke-miterlimit:4;stroke-dasharray:none;stroke-dashoffset:0;stroke-opacity:1;font-variant-east_asian:normal;opacity:1"
         d="" />
      <path
         id="path8577"
         style="vector-effect:none;fill:none;fill-opacity:1;stroke:#008000;stroke-width:0.25511873;stroke-linecap:round;stroke-linejoin:round;stroke-miterlimit:4;stroke-dasharray:none;stroke-dashoffset:0;stroke-opacity:1;font-variant-east_asian:normal;opacity:1"
         d="" />
      <path
         id="path8581"
         style="vector-effect:none;fill:none;fill-opacity:1;stroke:#008000;stroke-width:0.25511873;stroke-linecap:round;stroke-linejoin:round;stroke-miterlimit:4;stroke-dasharray:none;stroke-dashoffset:0;stroke-opacity:1;font-variant-east_asian:normal;opacity:1"
         d="" />
      <path
         id="path8589"
         style="vector-effect:none;fill:none;fill-opacity:1;stroke:#008000;stroke-width:0.25511873;stroke-linecap:round;stroke-linejoin:round;stroke-miterlimit:4;stroke-dasharray:none;stroke-dashoffset:0;stroke-opacity:1;font-variant-east_asian:normal;opacity:1"
         d="" />
      <g
         id="g10807"
         transform="translate(1.5000036)"
         style="font-variant-east_asian:normal;opacity:1;vector-effect:none;fill:none;fill-opacity:1;stroke-width:0.25511873;stroke-linecap:round;stroke-linejoin:round;stroke-miterlimit:4;stroke-dasharray:none;stroke-dashoffset:0;stroke-opacity:1;stroke:#008000">
        <path
           d="m 285.15245,134.48026 v 4.725 m -1.575,-4.725 h 3.15 m -4.05,0.675 -0.45,-0.45 -0.675,-0.225 h -0.9 l -0.675,0.225 -0.45,0.45 v 0.45 l 0.225,0.45 0.225,0.225 0.45,0.225 1.35,0.45 0.45,0.225 0.225,0.225 0.225,0.45 v 0.675 l -0.45,0.45 -0.675,0.225 h -0.9 l -0.675,-0.225 -0.45,-0.45 m -4.5,-4.05 v 4.725 m 0,-4.725 h 2.025 l 0.675,0.225 0.225,0.225 0.225,0.45 v 0.45 l -0.225,0.45 -0.225,0.225 -0.675,0.225 h -2.025 m 1.575,0 1.575,2.475"
           style="vector-effect:none;fill:none;fill-opacity:1;stroke:#008000;stroke-width:0.25511873;stroke-linecap:round;stroke-linejoin:round;stroke-miterlimit:4;stroke-dasharray:none;stroke-dashoffset:0;stroke-opacity:1;font-variant-east_asian:normal"
           id="path8571" />
        <path
           d="m 284.02745,127.28024 h 2.475 l -1.35,1.8 h 0.675 l 0.45,0.225 0.225,0.225 0.225,0.675 v 0.45 l -0.225,0.675 -0.45,0.45 -0.675,0.225 h -0.675 l -0.675,-0.225 -0.225,-0.225 -0.225,-0.45"
           style="vector-effect:none;fill:none;fill-opacity:1;stroke:#008000;stroke-width:0.25511873;stroke-linecap:round;stroke-linejoin:round;stroke-miterlimit:4;stroke-dasharray:none;stroke-dashoffset:0;stroke-opacity:1;font-variant-east_asian:normal"
           id="path8575" />
        <path
           d="m 285.60245,120.08022 -2.25,3.15 h 3.375 m -1.125,-3.15 v 4.725"
           style="vector-effect:none;fill:none;fill-opacity:1;stroke:#008000;stroke-width:0.25511873;stroke-linecap:round;stroke-linejoin:round;stroke-miterlimit:4;stroke-dasharray:none;stroke-dashoffset:0;stroke-opacity:1;font-variant-east_asian:normal"
           id="path8579" />
        <path
           d="m 283.57745,112.88021 v 4.725 m 0,-4.725 h 1.575 l 0.675,0.225 0.45,0.45 0.225,0.45 0.225,0.675 v 1.125 l -0.225,0.675 -0.225,0.45 -0.45,0.45 -0.675,0.225 h -1.575 m -4.95,-4.725 v 4.725 m 0,-4.725 3.15,4.725 m 0,-4.725 v 4.725 m -4.725,-3.6 -0.225,-0.45 -0.45,-0.45 -0.45,-0.225 h -0.9 l -0.45,0.225 -0.45,0.45 -0.225,0.45 -0.225,0.675 v 1.125 l 0.225,0.675 0.225,0.45 0.45,0.45 0.45,0.225 h 0.9 l 0.45,-0.225 0.45,-0.45 0.225,-0.45 v -0.675 m -1.125,0 h 1.125"
           style="vector-effect:none;fill:none;fill-opacity:1;stroke:#008000;stroke-width:0.25511873;stroke-linecap:round;stroke-linejoin:round;stroke-miterlimit:4;stroke-dasharray:none;stroke-dashoffset:0;stroke-opacity:1;font-variant-east_asian:normal"
           id="path8587" />
        <path
           d="m 285.15245,105.68019 v 4.725 m -1.575,-4.725 h 3.15 m -5.4,0 -1.8,4.725 m 1.8,-4.725 1.8,4.725 m -2.925,-1.575 h 2.25 m -6.975,-3.15 v 4.725 m 0,-4.725 h 2.025 l 0.675,0.225 0.225,0.225 0.225,0.45 v 0.45 l -0.225,0.45 -0.225,0.225 -0.675,0.225 m -2.025,0 h 2.025 l 0.675,0.225 0.225,0.225 0.225,0.45 v 0.675 l -0.225,0.45 -0.225,0.225 -0.675,0.225 h -2.025"
           style="vector-effect:none;fill:none;fill-opacity:1;stroke:#008000;stroke-width:0.25511873;stroke-linecap:round;stroke-linejoin:round;stroke-miterlimit:4;stroke-dasharray:none;stroke-dashoffset:0;stroke-opacity:1;font-variant-east_asian:normal"
           id="path8595" />
      </g>
      <path
         d=""
         style="vector-effect:none;fill:none;fill-opacity:1;stroke:#008000;stroke-width:0.25511873;stroke-linecap:round;stroke-linejoin:round;stroke-miterlimit:4;stroke-dasharray:none;stroke-dashoffset:0;stroke-opacity:1;font-variant-east_asian:normal;opacity:1"
         id="path9981" />
      <path
         d=""
         style="vector-effect:none;fill:none;fill-opacity:1;stroke:#008000;stroke-width:0.25511873;stroke-linecap:round;stroke-linejoin:round;stroke-miterlimit:4;stroke-dasharray:none;stroke-dashoffset:0;stroke-opacity:1;font-variant-east_asian:normal;opacity:1"
         id="path9985" />
      <path
         d=""
         style="vector-effect:none;fill:none;fill-opacity:1;stroke:#008000;stroke-width:0.25511873;stroke-linecap:round;stroke-linejoin:round;stroke-miterlimit:4;stroke-dasharray:none;stroke-dashoffset:0;stroke-opacity:1;font-variant-east_asian:normal;opacity:1"
         id="path9989" />
      <path
         d=""
         style="vector-effect:none;fill:none;fill-opacity:1;stroke:#008000;stroke-width:0.25511873;stroke-linecap:round;stroke-linejoin:round;stroke-miterlimit:4;stroke-dasharray:none;stroke-dashoffset:0;stroke-opacity:1;font-variant-east_asian:normal;opacity:1"
         id="path9993" />
      <g
         id="g10838"
         transform="translate(0,3.00001)"
         style="font-variant-east_asian:normal;opacity:1;vector-effect:none;fill:none;fill-opacity:1;stroke-width:0.25511873;stroke-linecap:round;stroke-linejoin:round;stroke-miterlimit:4;stroke-dasharray:none;stroke-dashoffset:0;stroke-opacity:1;stroke:#008000">
        <path
           d="m 337.22032,131.48025 1.8,4.725 m 1.8,-4.725 -1.8,4.725 m -5.4,-4.725 h 2.475 l -1.35,1.8 h 0.675 l 0.45,0.225 0.225,0.225 0.225,0.675 v 0.45 l -0.225,0.675 -0.45,0.45 -0.675,0.225 h -0.675 l -0.675,-0.225 -0.225,-0.225 -0.225,-0.45"
           style="vector-effect:none;fill:none;fill-opacity:1;stroke:#008000;stroke-width:0.25511873;stroke-linecap:round;stroke-linejoin:round;stroke-miterlimit:4;stroke-dasharray:none;stroke-dashoffset:0;stroke-opacity:1;font-variant-east_asian:normal"
           id="path9979" />
        <path
           id="path9983"
           style="vector-effect:none;fill:none;fill-opacity:1;stroke:#008000;stroke-width:0.25511873;stroke-linecap:round;stroke-linejoin:round;stroke-miterlimit:4;stroke-dasharray:none;stroke-dashoffset:0;stroke-opacity:1;font-variant-east_asian:normal"
           d="m 333.39532,125.40523 v -0.225 l 0.225,-0.45 0.225,-0.225 0.45,-0.225 h 0.9 l 0.45,0.225 0.225,0.225 0.225,0.45 v 0.45 l -0.225,0.45 -0.45,0.675 -2.25,2.25 h 3.15" />
        <path
           id="path9987"
           style="vector-effect:none;fill:none;fill-opacity:1;stroke:#008000;stroke-width:0.25511873;stroke-linecap:round;stroke-linejoin:round;stroke-miterlimit:4;stroke-dasharray:none;stroke-dashoffset:0;stroke-opacity:1;font-variant-east_asian:normal"
           d="m 333.17032,117.98021 0.45,-0.225 0.675,-0.675 v 4.725" />
        <path
           id="path9991"
           style="vector-effect:none;fill:none;fill-opacity:1;stroke:#008000;stroke-width:0.25511873;stroke-linecap:round;stroke-linejoin:round;stroke-miterlimit:4;stroke-dasharray:none;stroke-dashoffset:0;stroke-opacity:1;font-variant-east_asian:normal"
           d="m 334.52032,109.8802 -0.675,0.225 -0.45,0.675 -0.225,1.125 v 0.675 l 0.225,1.125 0.45,0.675 0.675,0.225 h 0.45 l 0.675,-0.225 0.45,-0.675 0.225,-1.125 v -0.675 l -0.225,-1.125 -0.45,-0.675 -0.675,-0.225 h -0.45" />
        <path
           d="m 339.31282,102.68018 v 4.725 m 0,-4.725 h 1.31625 l 0.43875,0.225 0.14625,0.225 0.14625,0.45 v 0.45 l -0.14625,0.45 -0.14625,0.225 -0.43875,0.225 m -1.31625,0 h 1.31625 l 0.43875,0.225 0.14625,0.225 0.14625,0.45 v 0.675 l -0.14625,0.45 -0.14625,0.225 -0.43875,0.225 h -1.31625 m -1.02375,-4.05 -0.2925,-0.45 -0.43875,-0.225 h -0.585 l -0.43875,0.225 -0.2925,0.45 v 0.45 l 0.14625,0.45 0.14625,0.225 0.2925,0.225 0.8775,0.45 0.2925,0.225 0.14625,0.225 0.14625,0.45 v 0.675 l -0.2925,0.45 -0.43875,0.225 h -0.585 l -0.43875,-0.225 -0.2925,-0.45 m -3.07125,-4.05 v 3.375 l 0.14625,0.675 0.2925,0.45 0.43875,0.225 h 0.2925 l 0.43875,-0.225 0.2925,-0.45 0.14625,-0.675 v -3.375"
           style="opacity:1;vector-effect:none;fill:none;fill-opacity:1;stroke:#008000;stroke-width:0.25511873;stroke-linecap:round;stroke-linejoin:round;stroke-miterlimit:4;stroke-dasharray:none;stroke-dashoffset:0;stroke-opacity:1;font-variant-east_asian:normal"
           id="path9999" />
      </g>
    </g>
  </g>
</svg>
